<?xml version="1.0" encoding="utf-8"?>
<!-- Generator: Adobe Illustrator 23.0.1, SVG Export Plug-In . SVG Version: 6.00 Build 0)  -->
<svg version="1.1" id="Layer_1" xmlns="http://www.w3.org/2000/svg" xmlns:xlink="http://www.w3.org/1999/xlink" x="0px" y="0px"
	 viewBox="0 0 467.34 402.99" style="enable-background:new 0 0 467.34 402.99;" xml:space="preserve">
<style type="text/css">
	.st0{fill:#EB2A8F;}
</style>
<path class="st0" d="M351.51,0l-234.6,1L0,202.12L115.36,402l234.71,0.99l117.27-202.45L351.51,0z M284.4,129.57
	c-5.86-2.3-11.47-3.45-16.84-3.45c-14.58,0-21.87,7.91-21.87,23.74v15.69h33.67v33.52h-33.67v113.82h-45.33V199.07h-24.74v-33.52
	h24.74v-18.28c0-16.78,5.47-30.31,16.41-40.57c10.93-10.27,25.8-15.4,44.6-15.4c9.21,0,16.89,0.96,23.03,2.88V129.57z"/>
</svg>
