<?xml version="1.0" encoding="utf-8"?>
<!-- Generator: Adobe Illustrator 23.0.1, SVG Export Plug-In . SVG Version: 6.00 Build 0)  -->
<svg version="1.1" id="Layer_1" xmlns="http://www.w3.org/2000/svg" xmlns:xlink="http://www.w3.org/1999/xlink" x="0px" y="0px"
	 viewBox="0 0 467.34 402.99" style="enable-background:new 0 0 467.34 402.99;" xml:space="preserve">
<style type="text/css">
	.st0{fill:#444444;}
</style>
<g>
	<path class="st0" d="M290.77,128.25c0-8.04,6.52-14.56,14.56-14.56c8.04,0,14.55,6.52,14.55,14.56c0,8.03-6.51,14.55-14.55,14.55
		C297.29,142.8,290.77,136.28,290.77,128.25z"/>
	<path class="st0" d="M283.18,205.04c0,26.59-21.55,48.15-48.14,48.15c-26.6,0-48.15-21.56-48.15-48.15
		c0-26.59,21.55-48.15,48.15-48.15C261.63,156.89,283.18,178.45,283.18,205.04z"/>
	<path class="st0" d="M294.63,167.33c-12.53-19.73-34.55-32.85-59.59-32.85c-25.05,0-47.07,13.12-59.6,32.85h-40.16v96.87
		c0,24.85,15.74,40.59,40.59,40.59H294.2c24.85,0,40.59-15.74,40.59-40.59v-96.87H294.63z M235.04,265.49
		c-33.34,0-60.46-27.12-60.46-60.45c0-33.34,27.12-60.46,60.46-60.46c33.33,0,60.45,27.12,60.45,60.46
		C295.49,238.37,268.37,265.49,235.04,265.49z"/>
	<path class="st0" d="M352.58,0.12l-234.6,0.99L1.07,202.23l115.36,199.88l234.71,1l117.27-202.46L352.58,0.12z M347.07,264.2
		c0,29.15-23.72,52.87-52.87,52.87H175.87c-29.15,0-52.87-23.72-52.87-52.87V145.88C123,116.72,146.72,93,175.87,93H294.2
		c29.15,0,52.87,23.72,52.87,52.88V264.2z"/>
</g>
</svg>
