<?xml version="1.0" encoding="utf-8"?>
<!-- Generator: Adobe Illustrator 23.0.1, SVG Export Plug-In . SVG Version: 6.00 Build 0)  -->
<svg version="1.1" id="Layer_1" xmlns="http://www.w3.org/2000/svg" xmlns:xlink="http://www.w3.org/1999/xlink" x="0px" y="0px"
	 viewBox="0 0 467.34 402.99" style="enable-background:new 0 0 467.34 402.99;" xml:space="preserve">
<style type="text/css">
	.st0{fill:#E021E2;}
</style>
<path class="st0" d="M351.51,0L116.92,1L0,202.11l115.36,199.88l234.71,1l117.27-202.45L351.51,0z M173.85,296.09h-42.24V159.21
	h42.24V296.09z M170.57,131.41c-4.5,4.1-10.36,6.15-17.57,6.15c-7.13,0-12.97-2.12-17.51-6.35c-4.55-4.23-6.82-9.43-6.82-15.57
	c0-6.33,2.27-11.5,6.82-15.51c4.54-4.01,10.38-6.01,17.51-6.01c7.21,0,13.07,2,17.57,6.01s6.75,9.18,6.75,15.51
	C177.32,122.05,175.07,127.31,170.57,131.41z M341.61,296.09H299.5v-76.06c0-21.2-7.58-31.81-22.72-31.81
	c-7.31,0-13.33,2.81-18.05,8.42c-4.73,5.61-7.08,12.75-7.08,21.39v78.06h-42.24V159.21h42.24v21.66h0.53
	c10.07-16.67,24.73-25,43.98-25c30.3,0,45.45,18.8,45.45,56.41V296.09z"/>
</svg>
