<?xml version="1.0" encoding="utf-8"?>
<!-- Generator: Adobe Illustrator 23.0.1, SVG Export Plug-In . SVG Version: 6.00 Build 0)  -->
<svg version="1.1" id="Layer_1" xmlns="http://www.w3.org/2000/svg" xmlns:xlink="http://www.w3.org/1999/xlink" x="0px" y="0px"
	 viewBox="0 0 467.34 402.99" style="enable-background:new 0 0 467.34 402.99;" xml:space="preserve">
<style type="text/css">
	.st0{fill:#FFFFFF;}
</style>
<path class="st0" d="M351.51,0l-234.6,1L0,202.12l115.36,199.87l234.71,1l117.27-202.45L351.51,0z M335.85,157.94
	c-43.87,215.11-226.92,131.6-226.92,131.6c59.05,1.68,73.39-22.78,73.39-22.78c-43.87-5.9-46.4-36.27-46.4-36.27
	c13.5,3.37,21.94-0.85,21.94-0.85c-45.56-16.02-40.49-51.45-40.49-51.45c9.27,6.75,21.93,5.9,21.93,5.9
	c-36.28-33.74-13.92-69.59-13.92-69.59c41.33,55.67,108.82,54.83,108.82,54.83c-2.95-32.48,7.17-55.25,37.54-62.85
	c30.37-7.59,51.46,14.34,51.46,14.34c17.43-3.32,31.6-11.55,32.04-11.8c-9.27,21.93-20.23,27.83-20.23,27.83
	c11.63-0.83,26.52-6.57,26.98-6.74C351.87,146.97,335.85,157.94,335.85,157.94z"/>
</svg>
