<?xml version="1.0" encoding="utf-8"?>
<!-- Generator: Adobe Illustrator 23.0.1, SVG Export Plug-In . SVG Version: 6.00 Build 0)  -->
<svg version="1.1" id="Layer_1" xmlns="http://www.w3.org/2000/svg" xmlns:xlink="http://www.w3.org/1999/xlink" x="0px" y="0px"
	 viewBox="0 0 467.34 402.99" style="enable-background:new 0 0 467.34 402.99;" xml:space="preserve">
<style type="text/css">
	.st0{fill:#FFFFFF;}
</style>
<g>
	<path class="st0" d="M277.47,205.44c0,0-68.37,37.99-68.95,38.29c-3.36,1.84-5.61,0.7-5.61-2.86v-76.38c0-3.09,2.31-4.26,4.83-2.93
		c1.03,0.56,69.73,38.85,69.73,38.85C279.96,201.79,279.96,204.05,277.47,205.44z"/>
	<path class="st0" d="M351.51,0l-234.6,1L0,202.12L115.36,402l234.71,0.99l117.27-202.45L351.51,0z M347,241.33
		c-3.67,20.82-16.06,34-37.24,37.29c-20,3.1-31.92,3.26-75.13,3.26v0.01c-43.21,0-55.14-0.16-75.13-3.26
		c-21.19-3.29-33.57-16.47-37.24-37.29c-1.83-10.34-1.93-15.82-1.93-31.71v-6.54c0-20.74-0.11-26.22,1.93-37.79
		c3.67-20.81,16.06-34,37.24-37.29c19.99-3.1,31.92-3.26,75.13-3.26v0.01c43.21,0,55.13,0.16,75.13,3.26
		c21.18,3.29,33.57,16.48,37.24,37.29c2.06,11.65,1.93,17.12,1.93,38.25C348.93,224.28,349.04,229.77,347,241.33z"/>
	<path class="st0" d="M277.47,205.44c0,0-68.37,37.99-68.95,38.29c-3.36,1.84-5.61,0.7-5.61-2.86v-76.38c0-3.09,2.31-4.26,4.83-2.93
		c1.03,0.56,69.73,38.85,69.73,38.85C279.96,201.79,279.96,204.05,277.47,205.44z"/>
	<path class="st0" d="M277.47,205.44c0,0-68.37,37.99-68.95,38.29c-3.36,1.84-5.61,0.7-5.61-2.86v-76.38c0-3.09,2.31-4.26,4.83-2.93
		c1.03,0.56,69.73,38.85,69.73,38.85C279.96,201.79,279.96,204.05,277.47,205.44z"/>
</g>
</svg>
